<?xml version="1.0" encoding="UTF-8"?>
<svg xmlns="http://www.w3.org/2000/svg" xmlns:xlink="http://www.w3.org/1999/xlink" width="250px" height="250px" viewBox="0 0 250 250" version="1.1">
<g id="surface1">
<path style=" stroke:none;fill-rule:nonzero;fill:rgb(7.058824%,9.803922%,13.725491%);fill-opacity:1;" d="M 59.304688 132.105469 L 66.679688 103.726562 L 67.308594 103.726562 L 74.585938 132.105469 Z M 81.714844 160 L 96.609375 160 L 75.605469 90 L 59.304688 90 L 38.300781 160 L 52.078125 160 L 56.539062 142.875 L 77.351562 142.875 Z M 81.714844 160 "/>
<path style=" stroke:none;fill-rule:nonzero;fill:rgb(7.058824%,9.803922%,13.725491%);fill-opacity:1;" d="M 105.390625 90 L 105.390625 160 L 119.164062 160 L 119.164062 137.78125 L 130.324219 137.78125 C 145.410156 137.78125 155.015625 128.515625 155.015625 113.964844 C 155.015625 99.265625 145.699219 90 131.003906 90 Z M 119.164062 101.304688 L 127.511719 101.304688 C 136.53125 101.304688 141.042969 105.476562 141.042969 113.867188 C 141.042969 122.308594 136.53125 126.429688 127.511719 126.429688 L 119.164062 126.429688 Z M 119.164062 101.304688 "/>
<path style=" stroke:none;fill-rule:nonzero;fill:rgb(7.058824%,9.803922%,13.725491%);fill-opacity:1;" d="M 211.675781 160 L 211.675781 148.164062 L 197.171875 148.164062 L 197.171875 101.835938 L 211.675781 101.835938 L 211.675781 90 L 168.890625 90 L 168.890625 101.835938 L 183.394531 101.835938 L 183.394531 148.164062 L 168.890625 148.164062 L 168.890625 160 Z M 211.675781 160 "/>
</g>
</svg>
