<?xml version="1.0" encoding="UTF-8"?>
<svg xmlns="http://www.w3.org/2000/svg" xmlns:xlink="http://www.w3.org/1999/xlink" width="39px" height="49px" viewBox="0 0 39 39" version="1.1">
<g id="surface1">
<path style=" stroke:none;fill-rule:nonzero;fill:rgb(0%,0%,0%);fill-opacity:1;" d="M 28.824219 0 L 14.863281 0 L 3.632812 11.230469 L 3.632812 32.457031 C 3.632812 36.066406 6.570312 39 10.175781 39 L 28.824219 39 C 32.429688 39 35.367188 36.066406 35.367188 32.457031 L 35.367188 6.542969 C 35.367188 2.933594 32.429688 0 28.824219 0 Z M 32.945312 32.457031 C 32.945312 34.734375 31.101562 36.578125 28.824219 36.578125 L 10.175781 36.578125 C 7.902344 36.578125 6.054688 34.734375 6.054688 32.457031 L 6.054688 12.234375 L 12.433594 12.234375 C 14.328125 12.234375 15.867188 10.695312 15.867188 8.800781 L 15.867188 2.421875 L 28.824219 2.421875 C 31.101562 2.421875 32.945312 4.265625 32.945312 6.542969 Z M 32.945312 32.457031 "/>
<path style=" stroke:none;fill-rule:nonzero;fill:rgb(0%,0%,0%);fill-opacity:1;" d="M 12.917969 20.488281 C 13.363281 20.488281 13.609375 20.652344 13.867188 21.003906 C 14.074219 21.292969 14.28125 21.398438 14.542969 21.398438 C 14.925781 21.398438 15.234375 21.117188 15.234375 20.714844 C 15.234375 20.546875 15.183594 20.402344 15.097656 20.257812 C 14.746094 19.628906 13.972656 19.140625 12.917969 19.140625 C 11.683594 19.140625 10.773438 19.71875 10.402344 20.871094 C 10.257812 21.335938 10.207031 21.695312 10.207031 22.773438 C 10.207031 23.847656 10.257812 24.210938 10.402344 24.675781 C 10.773438 25.824219 11.683594 26.402344 12.917969 26.402344 C 13.972656 26.402344 14.746094 25.917969 15.097656 25.285156 C 15.183594 25.140625 15.234375 24.996094 15.234375 24.832031 C 15.234375 24.429688 14.925781 24.148438 14.542969 24.148438 C 14.28125 24.148438 14.074219 24.253906 13.867188 24.542969 C 13.609375 24.894531 13.363281 25.058594 12.917969 25.058594 C 12.347656 25.058594 12.015625 24.757812 11.863281 24.285156 C 11.777344 24.023438 11.746094 23.777344 11.746094 22.773438 C 11.746094 21.769531 11.777344 21.519531 11.863281 21.261719 C 12.015625 20.785156 12.347656 20.488281 12.917969 20.488281 Z M 12.917969 20.488281 "/>
<path style=" stroke:none;fill-rule:nonzero;fill:rgb(0%,0%,0%);fill-opacity:1;" d="M 19.433594 22.058594 L 19.0625 22.007812 C 18.246094 21.894531 17.964844 21.625 17.964844 21.230469 C 17.964844 20.785156 18.296875 20.476562 18.917969 20.476562 C 19.351562 20.476562 19.789062 20.601562 20.128906 20.765625 C 20.273438 20.835938 20.429688 20.878906 20.574219 20.878906 C 20.945312 20.878906 21.234375 20.601562 21.234375 20.21875 C 21.234375 19.96875 21.121094 19.761719 20.875 19.605469 C 20.460938 19.347656 19.683594 19.140625 18.90625 19.140625 C 17.386719 19.140625 16.414062 20 16.414062 21.292969 C 16.414062 22.535156 17.199219 23.207031 18.636719 23.402344 L 19.011719 23.457031 C 19.847656 23.570312 20.097656 23.828125 20.097656 24.242188 C 20.097656 24.726562 19.695312 25.070312 18.949219 25.070312 C 18.433594 25.070312 18.019531 24.933594 17.4375 24.613281 C 17.3125 24.542969 17.160156 24.488281 16.992188 24.488281 C 16.601562 24.488281 16.3125 24.789062 16.3125 25.164062 C 16.3125 25.410156 16.433594 25.648438 16.671875 25.804688 C 17.136719 26.09375 17.894531 26.402344 18.886719 26.402344 C 20.71875 26.402344 21.648438 25.460938 21.648438 24.191406 C 21.648438 22.917969 20.894531 22.265625 19.433594 22.058594 Z M 19.433594 22.058594 "/>
<path style=" stroke:none;fill-rule:nonzero;fill:rgb(0%,0%,0%);fill-opacity:1;" d="M 25.800781 22.058594 L 25.425781 22.007812 C 24.609375 21.894531 24.332031 21.625 24.332031 21.230469 C 24.332031 20.785156 24.660156 20.476562 25.28125 20.476562 C 25.714844 20.476562 26.152344 20.601562 26.492188 20.765625 C 26.636719 20.835938 26.792969 20.878906 26.9375 20.878906 C 27.308594 20.878906 27.597656 20.601562 27.597656 20.21875 C 27.597656 19.96875 27.484375 19.761719 27.238281 19.605469 C 26.824219 19.347656 26.046875 19.140625 25.273438 19.140625 C 23.75 19.140625 22.777344 20 22.777344 21.292969 C 22.777344 22.535156 23.5625 23.207031 25.003906 23.402344 L 25.375 23.457031 C 26.214844 23.570312 26.460938 23.828125 26.460938 24.242188 C 26.460938 24.726562 26.058594 25.070312 25.3125 25.070312 C 24.796875 25.070312 24.382812 24.933594 23.800781 24.613281 C 23.679688 24.542969 23.523438 24.488281 23.355469 24.488281 C 22.964844 24.488281 22.675781 24.789062 22.675781 25.164062 C 22.675781 25.410156 22.796875 25.648438 23.035156 25.804688 C 23.503906 26.09375 24.257812 26.402344 25.25 26.402344 C 27.082031 26.402344 28.011719 25.460938 28.011719 24.191406 C 28.011719 22.917969 27.257812 22.265625 25.800781 22.058594 Z M 25.800781 22.058594 "/>
</g>
</svg>
