<?xml version="1.0" encoding="UTF-8"?>
<svg xmlns="http://www.w3.org/2000/svg" xmlns:xlink="http://www.w3.org/1999/xlink" width="39px" height="49px" viewBox="0 0 39 39" version="1.1">
<g id="surface1">
<path style=" stroke:none;fill-rule:nonzero;fill:rgb(0%,0%,0%);fill-opacity:1;" d="M 8.277344 0.0390625 L 10.03125 0.0390625 L 10.03125 1.773438 L 11.636719 1.773438 L 11.636719 0.0390625 L 13.390625 0.0390625 L 13.390625 5.285156 L 11.636719 5.285156 L 11.636719 3.53125 L 10.03125 3.53125 L 10.03125 5.285156 L 8.277344 5.285156 Z M 15.699219 1.777344 L 14.152344 1.777344 L 14.152344 0.0390625 L 18.996094 0.0390625 L 18.996094 1.777344 L 17.453125 1.777344 L 17.453125 5.285156 L 15.699219 5.285156 Z M 19.765625 0.0390625 L 21.597656 0.0390625 L 22.722656 1.882812 L 23.847656 0.0390625 L 25.675781 0.0390625 L 25.675781 5.285156 L 23.929688 5.285156 L 23.929688 2.683594 L 22.722656 4.550781 L 22.691406 4.550781 L 21.484375 2.683594 L 21.484375 5.285156 L 19.765625 5.285156 Z M 26.550781 0.0390625 L 28.304688 0.0390625 L 28.304688 3.550781 L 30.769531 3.550781 L 30.769531 5.285156 L 26.550781 5.285156 Z M 5.710938 7.6875 L 8.222656 35.835938 L 19.484375 38.960938 L 30.777344 35.832031 L 33.289062 7.6875 Z M 28.054688 14.367188 L 27.894531 16.117188 L 27.828125 16.894531 L 14.617188 16.894531 L 14.933594 20.429688 L 27.511719 20.429688 L 27.429688 21.355469 L 26.617188 30.445312 L 26.566406 31.027344 L 19.5 32.984375 L 19.5 32.988281 L 19.484375 32.992188 L 12.414062 31.027344 L 11.929688 25.605469 L 15.394531 25.605469 L 15.640625 28.359375 L 19.484375 29.398438 L 19.488281 29.398438 L 23.339844 28.359375 L 23.738281 23.882812 L 11.773438 23.882812 L 10.925781 14.367188 L 10.84375 13.441406 L 28.136719 13.441406 Z M 28.054688 14.367188 "/>
</g>
</svg>
