<?xml version="1.0" encoding="UTF-8"?>
<svg xmlns="http://www.w3.org/2000/svg" xmlns:xlink="http://www.w3.org/1999/xlink" width="39px" height="39px" viewBox="0 0 39 39" version="1.1">
<g id="surface1">
<path style=" stroke:none;fill-rule:nonzero;fill:rgb(0%,0%,0%);fill-opacity:1;" d="M 0 4.265625 C 0 1.910156 1.910156 0 4.265625 0 L 34.734375 0 C 37.089844 0 39 1.910156 39 4.265625 L 39 9.140625 C 39 10.148438 38.179688 10.96875 37.171875 10.96875 C 36.164062 10.96875 35.34375 10.148438 35.34375 9.140625 L 35.34375 4.265625 C 35.34375 3.929688 35.070312 3.65625 34.734375 3.65625 L 4.265625 3.65625 C 3.929688 3.65625 3.65625 3.929688 3.65625 4.265625 L 3.65625 34.734375 C 3.65625 35.070312 3.929688 35.34375 4.265625 35.34375 L 37.171875 35.34375 C 38.179688 35.34375 39 36.164062 39 37.171875 C 39 38.179688 38.179688 39 37.171875 39 L 4.265625 39 C 1.910156 39 0 37.089844 0 34.734375 Z M 20.109375 14.015625 C 21.117188 14.015625 21.9375 14.835938 21.9375 15.84375 L 21.9375 25.59375 C 21.9375 28.042969 21.265625 29.878906 19.878906 31.035156 C 18.554688 32.136719 16.949219 32.296875 15.84375 32.296875 C 14.835938 32.296875 14.015625 31.476562 14.015625 30.46875 C 14.015625 29.460938 14.835938 28.640625 15.84375 28.640625 C 16.6875 28.640625 17.214844 28.496094 17.539062 28.226562 C 17.796875 28.011719 18.28125 27.410156 18.28125 25.59375 L 18.28125 15.84375 C 18.28125 14.835938 19.101562 14.015625 20.109375 14.015625 Z M 27.484375 16.039062 C 28.503906 14.824219 30.105469 14.015625 32.296875 14.015625 C 34.332031 14.015625 35.867188 14.710938 36.902344 15.808594 C 37.597656 16.539062 37.5625 17.699219 36.828125 18.390625 C 36.097656 19.085938 34.9375 19.050781 34.246094 18.316406 C 33.976562 18.035156 33.445312 17.671875 32.296875 17.671875 C 31.078125 17.671875 30.542969 18.082031 30.285156 18.390625 C 29.964844 18.769531 29.859375 19.246094 29.859375 19.5 C 29.859375 19.753906 29.964844 20.230469 30.285156 20.609375 C 30.542969 20.917969 31.078125 21.328125 32.296875 21.328125 C 32.480469 21.328125 32.660156 21.355469 32.828125 21.40625 C 34.445312 21.636719 35.664062 22.359375 36.5 23.351562 C 37.460938 24.496094 37.78125 25.847656 37.78125 26.8125 C 37.78125 27.777344 37.460938 29.128906 36.5 30.273438 C 35.480469 31.488281 33.878906 32.296875 31.6875 32.296875 C 29.652344 32.296875 28.117188 31.601562 27.082031 30.503906 C 26.386719 29.773438 26.421875 28.613281 27.15625 27.921875 C 27.886719 27.226562 29.046875 27.261719 29.738281 27.996094 C 30.007812 28.277344 30.539062 28.640625 31.6875 28.640625 C 32.90625 28.640625 33.441406 28.230469 33.699219 27.921875 C 34.019531 27.542969 34.125 27.066406 34.125 26.8125 C 34.125 26.558594 34.019531 26.082031 33.699219 25.703125 C 33.441406 25.394531 32.90625 24.984375 31.6875 24.984375 C 31.503906 24.984375 31.324219 24.957031 31.15625 24.90625 C 29.539062 24.675781 28.320312 23.953125 27.484375 22.960938 C 26.523438 21.816406 26.203125 20.464844 26.203125 19.5 C 26.203125 18.535156 26.523438 17.183594 27.484375 16.039062 Z M 27.484375 16.039062 "/>
</g>
</svg>
