<?xml version="1.0" encoding="UTF-8"?>
<svg xmlns="http://www.w3.org/2000/svg" xmlns:xlink="http://www.w3.org/1999/xlink" width="39px" height="39px" viewBox="0 0 39 39" version="1.1">
<g id="surface1">
<path style=" stroke:none;fill-rule:nonzero;fill:rgb(0%,0%,0%);fill-opacity:1;" d="M 14.832031 18.804688 L 24.109375 18.804688 C 26.691406 18.804688 28.75 16.679688 28.75 14.085938 L 28.75 5.242188 C 28.75 2.726562 26.628906 0.835938 24.109375 0.417969 C 22.511719 0.152344 20.859375 0.03125 19.269531 0.0390625 C 17.683594 0.046875 16.167969 0.179688 14.832031 0.417969 C 10.902344 1.113281 10.191406 2.5625 10.191406 5.242188 L 10.191406 8.785156 L 19.476562 8.785156 L 19.476562 9.964844 L 6.707031 9.964844 C 4.007812 9.964844 1.644531 11.585938 0.90625 14.671875 C 0.0507812 18.207031 0.015625 20.414062 0.90625 24.109375 C 1.566406 26.855469 3.140625 28.816406 5.839844 28.816406 L 9.03125 28.816406 L 9.03125 24.574219 C 9.03125 21.507812 11.683594 18.804688 14.832031 18.804688 Z M 14.25 6.421875 C 13.285156 6.421875 12.507812 5.636719 12.507812 4.660156 C 12.507812 3.679688 13.285156 2.886719 14.25 2.886719 C 15.207031 2.886719 15.992188 3.679688 15.992188 4.660156 C 15.992188 5.636719 15.207031 6.421875 14.25 6.421875 Z M 38.039062 14.671875 C 37.371094 11.984375 36.097656 9.964844 33.394531 9.964844 L 29.910156 9.964844 L 29.910156 14.085938 C 29.910156 17.285156 27.199219 19.972656 24.109375 19.972656 L 14.832031 19.972656 C 12.292969 19.972656 10.191406 22.148438 10.191406 24.691406 L 10.191406 33.535156 C 10.191406 36.050781 12.378906 37.53125 14.832031 38.253906 C 17.773438 39.117188 20.589844 39.273438 24.109375 38.253906 C 26.445312 37.578125 28.75 36.214844 28.75 33.535156 L 28.75 29.996094 L 19.476562 29.996094 L 19.476562 28.816406 L 33.394531 28.816406 C 36.09375 28.816406 37.097656 26.933594 38.039062 24.109375 C 39.007812 21.199219 38.964844 18.402344 38.039062 14.671875 Z M 24.691406 32.355469 C 25.65625 32.355469 26.433594 33.144531 26.433594 34.117188 C 26.433594 35.097656 25.65625 35.894531 24.691406 35.894531 C 23.734375 35.894531 22.949219 35.097656 22.949219 34.117188 C 22.949219 33.144531 23.734375 32.355469 24.691406 32.355469 Z M 24.691406 32.355469 "/>
</g>
</svg>
